<svg width="20" height="20" viewBox="0 0 20 20" fill="none" xmlns="http://www.w3.org/2000/svg">
<path d="M18.2383 4.61333C18.1676 4.4787 18.0615 4.36594 17.9313 4.28723C17.8012 4.20851 17.6521 4.16682 17.5 4.16666H2.50001C2.34821 4.16729 2.19946 4.20928 2.06974 4.28813C1.94003 4.36698 1.83426 4.47969 1.76382 4.61416C1.69337 4.74862 1.66091 4.89974 1.66993 5.05127C1.67895 5.2028 1.72911 5.34901 1.81501 5.47416L9.31501 16.3075C9.39146 16.4185 9.49375 16.5093 9.61308 16.572C9.73241 16.6348 9.8652 16.6675 10 16.6675C10.1348 16.6675 10.2676 16.6348 10.3869 16.572C10.5063 16.5093 10.6086 16.4185 10.685 16.3075L18.185 5.47416C18.2717 5.34926 18.3226 5.20297 18.332 5.0512C18.3414 4.89943 18.309 4.74798 18.2383 4.61333ZM10 14.3692L4.09001 5.83333H15.91L10 14.3692Z" fill="black"/>
</svg>
